<?xml version="1.0" encoding="UTF-8"?>
<svg id="Layer_1" data-name="Layer 1" xmlns="http://www.w3.org/2000/svg" viewBox="0 0 550 200">
  <defs>
    <style>
      .cls-1, .cls-2 {
        fill: #d9042b;
      }

      .cls-2 {
        stroke: #c1272d;
        stroke-miterlimit: 10;
        stroke-width: .5px;
      }

      .cls-3 {
        fill: #c1272d;
      }
    </style>
  </defs>
  <g>
    <path class="cls-1" d="M97.36,121.38c-11.23,0-19.87-1.76-25.94-5.29-6.72-3.85-10.69-10.12-11.92-18.81h10.94c.66,5.16,2.97,8.95,6.94,11.37,3.97,2.42,10.43,3.63,19.36,3.63,10.73,0,17.99-1.52,21.76-4.55,3.36-2.7,5.04-6.96,5.04-12.78v-57.77h10.82v58.51c0,17.13-12.33,25.69-37,25.69Z"/>
    <path class="cls-1" d="M225.56,117.08c-8.28,2.87-18.23,4.3-29.87,4.3-13.19,0-24.01-1.47-32.45-4.42-13.27-4.67-19.91-12.66-19.91-23.97v-4.67h10.82v4.18c0,13.19,13.93,19.79,41.79,19.79,8.93,0,16.59-.9,22.99-2.7,8.85-2.46,13.28-6.27,13.28-11.43,0-3.52-1.48-6.19-4.43-7.99-2.38-1.48-6.43-2.79-12.17-3.93-3.11-.65-10.98-1.92-23.6-3.81-14.34-2.13-24.01-4.1-29.01-5.9-10.74-3.93-16.1-9.91-16.1-17.95,0-14.83,15.24-22.25,45.73-22.25,15.4,0,27.04,2.13,34.91,6.39,8.68,4.75,13.15,12.37,13.4,22.86h-10.82c-.41-4.92-1.62-8.71-3.63-11.37-2.01-2.66-5.1-4.65-9.28-5.96-5.49-1.88-13.69-2.83-24.58-2.83-23.19,0-34.79,4.38-34.79,13.15,0,4.02,2.91,7.09,8.73,9.22,4.42,1.64,12.05,3.16,22.86,4.55,20.16,2.54,33.64,5.29,40.44,8.24,8.85,3.69,13.27,9.67,13.27,17.95s-5.86,14.55-17.58,18.56Z"/>
    <path class="cls-1" d="M351.18,112.41c-10.65,5.98-24.21,8.97-40.69,8.97s-30.03-2.99-40.69-8.97c-13.44-7.46-20.16-18.64-20.16-33.56s6.8-25.73,20.4-32.94c10.49-5.57,23.97-8.36,40.44-8.36s29.95,2.79,40.44,8.36c13.6,7.21,20.4,18.19,20.4,32.94s-6.72,26.1-20.16,33.56ZM345.03,53.65c-8.69-4.67-20.2-7.01-34.54-7.01-13.6,0-24.71,2.17-33.31,6.51-11.06,5.49-16.59,14.05-16.59,25.69s5.12,20,15.36,25.81c9.01,5.08,20.53,7.62,34.54,7.62s24.87-2.29,33.56-6.88c10.98-5.82,16.47-14.67,16.47-26.55s-5.16-19.71-15.49-25.2Z"/>
    <path class="cls-1" d="M469.92,120.52l-80.14-69.57v69.57h-10.82V37.18h10.33c9.59,8.69,23.03,20.36,40.32,35.03,18.93,15.98,32.21,27.37,39.83,34.17V37.18h10.82v83.34h-10.33Z"/>
  </g>
  <path class="cls-3" d="M529.5,144.92H20.5c-1.1,0-2-.9-2-2s.9-2,2-2h509c1.1,0,2,.9,2,2s-.9,2-2,2Z"/>
  <g>
    <path class="cls-2" d="M66.05,178.86c-1.83,0-3.23-.29-4.22-.86-1.09-.63-1.74-1.65-1.94-3.06h1.78c.11.84.48,1.46,1.13,1.85.65.39,1.7.59,3.15.59,1.75,0,2.93-.25,3.54-.74.55-.44.82-1.13.82-2.08v-9.4h1.76v9.52c0,2.79-2.01,4.18-6.02,4.18Z"/>
    <path class="cls-2" d="M84.53,178.74v-1.06c-1.09.84-2.64,1.26-4.64,1.26-1.51,0-2.76-.23-3.76-.7-1.35-.64-2.02-1.65-2.02-3.02v-6.26h1.78v6.24c0,1.52,1.33,2.28,4,2.28,1.41,0,2.51-.25,3.3-.74.89-.56,1.34-1.4,1.34-2.52v-5.26h1.78v9.78h-1.78Z"/>
    <path class="cls-2" d="M89.13,167.66c-.35,0-.63-.19-.84-.58v-1.54c.27-.37.55-.56.84-.56.24,0,.55.16.94.48v1.72c-.35.32-.66.48-.94.48ZM88.29,178.72v-10.08h1.78v10.08h-1.78Z"/>
    <path class="cls-2" d="M102.07,178.32c-1.07.41-2.29.62-3.66.62-1.89,0-3.47-.35-4.74-1.06-1.57-.89-2.36-2.19-2.36-3.88,0-1.83.8-3.2,2.4-4.12,1.32-.77,2.99-1.16,5-1.16,1.27,0,2.39.19,3.36.56,1.29.49,2.21,1.42,2.74,2.78l-1.64.58c-.33-.88-.85-1.51-1.55-1.89-.7-.38-1.69-.57-2.97-.57-1.6,0-2.9.3-3.9.9-1.12.67-1.68,1.64-1.68,2.92s.61,2.18,1.82,2.78c.93.47,2.1.7,3.5.7,1.11,0,2.09-.16,2.94-.48.97-.39,1.61-1.12,1.92-2.2l1.72.52c-.52,1.47-1.49,2.47-2.9,3Z"/>
    <path class="cls-2" d="M111.69,182.3c-1.44,0-2.67-.19-3.68-.56-1.55-.56-2.37-1.69-2.48-3.4h1.74c.11.87.49,1.49,1.14,1.86.71.41,1.82.62,3.34.62,3.21,0,4.82-.9,4.82-2.7v-.2c-1.09.87-2.64,1.3-4.64,1.3-1.51,0-2.76-.24-3.76-.72-1.35-.65-2.02-1.69-2.02-3.1v-6.44h1.78v6.42c0,1.57,1.33,2.36,4,2.36,1.41,0,2.51-.25,3.3-.76.89-.59,1.34-1.45,1.34-2.6v-5.42h1.78v9.18c0,2.77-2.22,4.16-6.66,4.16Z"/>
    <path class="cls-2" d="M142.69,178.16c-1.35.47-2.97.7-4.86.7-2.15,0-3.91-.24-5.28-.72-2.16-.76-3.24-2.06-3.24-3.9v-.76h1.76v.68c0,2.15,2.27,3.22,6.8,3.22,1.45,0,2.7-.15,3.74-.44,1.44-.4,2.16-1.02,2.16-1.86,0-.57-.24-1.01-.72-1.3-.39-.24-1.05-.45-1.98-.64-.51-.11-1.79-.31-3.84-.62-2.33-.35-3.91-.67-4.72-.96-1.75-.64-2.62-1.61-2.62-2.92,0-2.41,2.48-3.62,7.44-3.62,2.51,0,4.4.35,5.68,1.04,1.41.77,2.14,2.01,2.18,3.72h-1.76c-.07-.8-.26-1.42-.59-1.85-.33-.43-.83-.76-1.51-.97-.89-.31-2.23-.46-4-.46-3.77,0-5.66.71-5.66,2.14,0,.65.47,1.15,1.42,1.5.72.27,1.96.51,3.72.74,3.28.41,5.47.86,6.58,1.34,1.44.6,2.16,1.57,2.16,2.92s-.95,2.37-2.86,3.02Z"/>
    <path class="cls-2" d="M148.15,174.46c.28,2.01,2.01,3.02,5.2,3.02,2.55,0,4.23-.75,5.06-2.24h1.86c-.72,1.6-1.81,2.65-3.26,3.14-1.07.37-2.31.56-3.72.56-1.97,0-3.56-.37-4.76-1.1-1.44-.87-2.16-2.19-2.16-3.98s.78-3.06,2.34-3.98c1.29-.77,2.87-1.16,4.72-1.16s3.4.33,4.64,1c1.59.85,2.38,2.11,2.38,3.78v.94l-12.3.02ZM153.43,170.18c-1.29,0-2.4.23-3.32.68-1.03.49-1.66,1.21-1.9,2.16h10.3c-.17-1.01-.83-1.77-1.98-2.26-.88-.39-1.91-.58-3.1-.58Z"/>
    <path class="cls-2" d="M172.75,178.74v-1.42c-1.24,1.08-3,1.62-5.28,1.62-1.81,0-3.35-.39-4.6-1.16-1.49-.91-2.24-2.21-2.24-3.92s.74-3.04,2.22-3.96c1.25-.79,2.83-1.18,4.72-1.18,2.24,0,3.97.52,5.18,1.56v-1.52h1.78v9.98h-1.78ZM171.21,171.04c-.93-.57-2.19-.86-3.76-.86-1.45,0-2.64.31-3.56.92-1.01.67-1.52,1.59-1.52,2.76s.51,2.09,1.52,2.74c.91.59,2.09.88,3.56.88s2.69-.31,3.7-.92c1.07-.65,1.6-1.55,1.6-2.7,0-1.25-.51-2.19-1.54-2.82Z"/>
    <path class="cls-2" d="M185.75,178.54c-.91.29-2.03.44-3.36.44-4.15,0-6.22-1.45-6.22-4.34h1.82c0,1,.34,1.72,1.01,2.17.67.45,1.81.67,3.41.67,2.52,0,3.78-.49,3.78-1.46,0-.59-.83-1.02-2.5-1.3-.88-.09-1.77-.19-2.66-.28-1.27-.16-2.23-.41-2.9-.74-.92-.48-1.38-1.15-1.38-2.02,0-1.09.67-1.9,2-2.42.93-.37,1.99-.56,3.18-.56,4,0,6,1.31,6,3.94h-1.84c0-.85-.29-1.47-.86-1.84-.63-.4-1.68-.6-3.16-.6-.87,0-1.63.11-2.3.34-.8.28-1.2.66-1.2,1.14,0,.59.81.98,2.44,1.18l2.86.36c2.76.33,4.14,1.27,4.14,2.8,0,1.19-.75,2.03-2.26,2.52Z"/>
    <path class="cls-2" d="M200.95,177.82c-1.29.75-2.9,1.12-4.82,1.12s-3.51-.38-4.82-1.14c-1.56-.91-2.34-2.23-2.34-3.96s.8-3.05,2.4-3.98c1.31-.76,2.91-1.14,4.82-1.14s3.52.38,4.8,1.14c1.57.93,2.36,2.26,2.36,3.98s-.8,3.06-2.4,3.98ZM199.97,171.04c-.97-.57-2.24-.86-3.8-.86s-2.82.29-3.82.88c-1.08.65-1.62,1.58-1.62,2.78s.55,2.11,1.64,2.76c1,.59,2.27.88,3.8.88s2.78-.29,3.78-.88c1.09-.65,1.64-1.57,1.64-2.76s-.54-2.15-1.62-2.8Z"/>
    <path class="cls-2" d="M214.89,178.72v-6.3c0-.77-.41-1.35-1.24-1.74-.71-.33-1.61-.5-2.72-.5-1.32,0-2.4.25-3.24.74-.96.56-1.44,1.35-1.44,2.36v5.44h-1.78v-9.78h1.78v1.04c1.09-.84,2.65-1.26,4.66-1.26,1.43,0,2.65.22,3.66.66,1.4.6,2.1,1.55,2.1,2.86v6.48h-1.78Z"/>
    <path class="cls-2" d="M219.57,174.46c.28,2.01,2.01,3.02,5.2,3.02,2.55,0,4.23-.75,5.06-2.24h1.86c-.72,1.6-1.81,2.65-3.26,3.14-1.07.37-2.31.56-3.72.56-1.97,0-3.56-.37-4.76-1.1-1.44-.87-2.16-2.19-2.16-3.98s.78-3.06,2.34-3.98c1.29-.77,2.87-1.16,4.72-1.16s3.4.33,4.64,1c1.59.85,2.38,2.11,2.38,3.78v.94l-12.3.02ZM224.85,170.18c-1.29,0-2.4.23-3.32.68-1.03.49-1.66,1.21-1.9,2.16h10.3c-.17-1.01-.83-1.77-1.98-2.26-.88-.39-1.91-.58-3.1-.58Z"/>
    <path class="cls-2" d="M244.17,178.74v-1.46c-1.24,1.11-3,1.66-5.28,1.66-1.83,0-3.37-.4-4.62-1.2-1.48-.95-2.22-2.29-2.22-4.02s.74-3.13,2.22-4.08c1.25-.81,2.83-1.22,4.72-1.22,2.24,0,3.97.53,5.18,1.6v-4.86h1.78v13.58h-1.78ZM242.63,170.8c-.93-.59-2.19-.88-3.76-.88-1.44,0-2.63.31-3.56.94-1.01.69-1.52,1.65-1.52,2.86s.51,2.15,1.52,2.82c.92.61,2.11.92,3.56.92s2.68-.32,3.68-.96c1.08-.68,1.62-1.61,1.62-2.78,0-1.29-.51-2.27-1.54-2.92Z"/>
    <path class="cls-2" d="M273.51,177.4c-1.73.97-3.94,1.46-6.62,1.46s-4.89-.49-6.62-1.46c-2.19-1.21-3.28-3.03-3.28-5.46s1.11-4.19,3.32-5.36c1.71-.91,3.9-1.36,6.58-1.36s4.87.45,6.58,1.36c2.21,1.17,3.32,2.96,3.32,5.36s-1.09,4.25-3.28,5.46ZM272.51,167.84c-1.41-.76-3.29-1.14-5.62-1.14s-4.02.35-5.42,1.06c-1.8.89-2.7,2.29-2.7,4.18s.83,3.25,2.5,4.2c1.47.83,3.34,1.24,5.62,1.24s4.05-.37,5.46-1.12c1.79-.95,2.68-2.39,2.68-4.32s-.84-3.21-2.52-4.1Z"/>
    <path class="cls-2" d="M281.17,171.38c-.89.8-1.34,1.92-1.34,3.36v3.98h-1.78v-9.78h1.78v1.3c.31-.25.67-.48,1.1-.68,1.19-.56,2.73-.84,4.64-.84v1.46c-2.04,0-3.51.4-4.4,1.2Z"/>
    <path class="cls-2" d="M292.85,182.3c-1.45,0-2.69-.19-3.7-.56-1.55-.56-2.38-1.69-2.5-3.4h1.74c.11.85.49,1.47,1.14,1.86.71.41,1.82.62,3.34.62,3.23,0,4.84-.9,4.84-2.7v-.74c-1.28,1-2.98,1.5-5.1,1.5-1.81,0-3.33-.38-4.54-1.14-1.47-.92-2.2-2.22-2.2-3.9s.76-3.06,2.28-3.98c1.24-.76,2.79-1.14,4.64-1.14,2.08,0,3.72.51,4.92,1.52v-1.3h1.76v9.2c0,2.77-2.21,4.16-6.62,4.16ZM292.75,170.2c-1.43,0-2.61.31-3.56.92-1.03.65-1.54,1.55-1.54,2.7s.49,2.06,1.46,2.7c.88.57,2.03.86,3.44.86s2.63-.27,3.56-.82c1.07-.64,1.6-1.53,1.6-2.68,0-1.04-.41-1.88-1.22-2.52-.97-.77-2.22-1.16-3.74-1.16Z"/>
    <path class="cls-2" d="M312.69,178.74v-1.42c-1.24,1.08-3,1.62-5.28,1.62-1.81,0-3.35-.39-4.6-1.16-1.49-.91-2.24-2.21-2.24-3.92s.74-3.04,2.22-3.96c1.25-.79,2.83-1.18,4.72-1.18,2.24,0,3.97.52,5.18,1.56v-1.52h1.78v9.98h-1.78ZM311.15,171.04c-.93-.57-2.19-.86-3.76-.86-1.45,0-2.64.31-3.56.92-1.01.67-1.52,1.59-1.52,2.76s.51,2.09,1.52,2.74c.91.59,2.09.88,3.56.88s2.69-.31,3.7-.92c1.07-.65,1.6-1.55,1.6-2.7,0-1.25-.51-2.19-1.54-2.82Z"/>
    <path class="cls-2" d="M326.99,178.72v-6.3c0-.77-.41-1.35-1.24-1.74-.71-.33-1.61-.5-2.72-.5-1.32,0-2.4.25-3.24.74-.96.56-1.44,1.35-1.44,2.36v5.44h-1.78v-9.78h1.78v1.04c1.09-.84,2.65-1.26,4.66-1.26,1.43,0,2.65.22,3.66.66,1.4.6,2.1,1.55,2.1,2.86v6.48h-1.78Z"/>
    <path class="cls-2" d="M331.59,167.66c-.35,0-.63-.19-.84-.58v-1.54c.27-.37.55-.56.84-.56.24,0,.55.16.94.48v1.72c-.35.32-.66.48-.94.48ZM330.75,178.72v-10.08h1.78v10.08h-1.78Z"/>
    <path class="cls-2" d="M344.53,178.32c-1.07.41-2.29.62-3.66.62-1.89,0-3.47-.35-4.74-1.06-1.57-.89-2.36-2.19-2.36-3.88,0-1.83.8-3.2,2.4-4.12,1.32-.77,2.99-1.16,5-1.16,1.27,0,2.39.19,3.36.56,1.29.49,2.21,1.42,2.74,2.78l-1.64.58c-.33-.88-.85-1.51-1.55-1.89-.7-.38-1.69-.57-2.97-.57-1.6,0-2.9.3-3.9.9-1.12.67-1.68,1.64-1.68,2.92s.61,2.18,1.82,2.78c.93.47,2.1.7,3.5.7,1.11,0,2.09-.16,2.94-.48.97-.39,1.61-1.12,1.92-2.2l1.72.52c-.52,1.47-1.49,2.47-2.9,3Z"/>
    <path class="cls-2" d="M372.95,178.72l-13.04-11.32v11.32h-1.76v-13.56h1.68c1.56,1.41,3.75,3.31,6.56,5.7,3.08,2.6,5.24,4.45,6.48,5.56v-11.26h1.76v13.56h-1.68Z"/>
    <path class="cls-2" d="M387.73,177.82c-1.29.75-2.9,1.12-4.82,1.12s-3.51-.38-4.82-1.14c-1.56-.91-2.34-2.23-2.34-3.96s.8-3.05,2.4-3.98c1.31-.76,2.91-1.14,4.82-1.14s3.52.38,4.8,1.14c1.57.93,2.36,2.26,2.36,3.98s-.8,3.06-2.4,3.98ZM386.75,171.04c-.97-.57-2.24-.86-3.8-.86s-2.82.29-3.82.88c-1.08.65-1.62,1.58-1.62,2.78s.55,2.11,1.64,2.76c1,.59,2.27.88,3.8.88s2.78-.29,3.78-.88c1.09-.65,1.64-1.57,1.64-2.76s-.54-2.15-1.62-2.8Z"/>
    <path class="cls-2" d="M401.67,178.74v-1.06c-1.09.84-2.64,1.26-4.64,1.26-1.51,0-2.76-.23-3.76-.7-1.35-.64-2.02-1.65-2.02-3.02v-6.26h1.78v6.24c0,1.52,1.33,2.28,4,2.28,1.41,0,2.51-.25,3.3-.74.89-.56,1.34-1.4,1.34-2.52v-5.26h1.78v9.78h-1.78Z"/>
    <path class="cls-2" d="M408.55,171.38c-.89.8-1.34,1.92-1.34,3.36v3.98h-1.78v-9.78h1.78v1.3c.31-.25.67-.48,1.1-.68,1.19-.56,2.73-.84,4.64-.84v1.46c-2.04,0-3.51.4-4.4,1.2Z"/>
    <path class="cls-2" d="M414.85,167.66c-.35,0-.63-.19-.84-.58v-1.54c.27-.37.55-.56.84-.56.24,0,.55.16.94.48v1.72c-.35.32-.66.48-.94.48ZM414.01,178.72v-10.08h1.78v10.08h-1.78Z"/>
    <path class="cls-2" d="M426.81,178.54c-.91.29-2.03.44-3.36.44-4.15,0-6.22-1.45-6.22-4.34h1.82c0,1,.34,1.72,1.01,2.17.67.45,1.81.67,3.41.67,2.52,0,3.78-.49,3.78-1.46,0-.59-.83-1.02-2.5-1.3-.88-.09-1.77-.19-2.66-.28-1.27-.16-2.23-.41-2.9-.74-.92-.48-1.38-1.15-1.38-2.02,0-1.09.67-1.9,2-2.42.93-.37,1.99-.56,3.18-.56,4,0,6,1.31,6,3.94h-1.84c0-.85-.29-1.47-.86-1.84-.63-.4-1.68-.6-3.16-.6-.87,0-1.63.11-2.3.34-.8.28-1.2.66-1.2,1.14,0,.59.81.98,2.44,1.18l2.86.36c2.76.33,4.14,1.27,4.14,2.8,0,1.19-.75,2.03-2.26,2.52Z"/>
    <path class="cls-2" d="M441.23,178.72v-6.48c0-.81-.41-1.42-1.24-1.82-.71-.35-1.61-.52-2.72-.52-1.32,0-2.4.26-3.24.78-.96.57-1.44,1.39-1.44,2.44v5.6h-1.78v-13.56h1.78v4.56c1.09-.87,2.65-1.3,4.66-1.3,1.44,0,2.66.23,3.66.68,1.4.63,2.1,1.61,2.1,2.96v6.66h-1.78Z"/>
    <path class="cls-2" d="M463.33,178.72v-6.3c0-1.49-1.11-2.24-3.32-2.24-1.12,0-2.05.19-2.8.58-.84.45-1.26,1.09-1.26,1.92v6.04h-1.78v-6.3c0-1.49-1.13-2.24-3.4-2.24-1.17,0-2.13.27-2.88.82-.75.55-1.12,1.31-1.12,2.28v5.44h-1.78v-9.78h1.78v.98c1.04-.8,2.47-1.2,4.28-1.2,1.96,0,3.38.52,4.26,1.56.93-1.04,2.48-1.56,4.64-1.56,3.43,0,5.14,1.17,5.14,3.52v6.48h-1.76Z"/>
    <path class="cls-2" d="M467.97,174.46c.28,2.01,2.01,3.02,5.2,3.02,2.55,0,4.23-.75,5.06-2.24h1.86c-.72,1.6-1.81,2.65-3.26,3.14-1.07.37-2.31.56-3.72.56-1.97,0-3.56-.37-4.76-1.1-1.44-.87-2.16-2.19-2.16-3.98s.78-3.06,2.34-3.98c1.29-.77,2.87-1.16,4.72-1.16s3.4.33,4.64,1c1.59.85,2.38,2.11,2.38,3.78v.94l-12.3.02ZM473.25,170.18c-1.29,0-2.4.23-3.32.68-1.03.49-1.66,1.21-1.9,2.16h10.3c-.17-1.01-.83-1.77-1.98-2.26-.88-.39-1.91-.58-3.1-.58Z"/>
    <path class="cls-2" d="M491.65,178.72v-6.3c0-.77-.41-1.35-1.24-1.74-.71-.33-1.61-.5-2.72-.5-1.32,0-2.4.25-3.24.74-.96.56-1.44,1.35-1.44,2.36v5.44h-1.78v-9.78h1.78v1.04c1.09-.84,2.65-1.26,4.66-1.26,1.43,0,2.65.22,3.66.66,1.4.6,2.1,1.55,2.1,2.86v6.48h-1.78Z"/>
    <path class="cls-2" d="M498.85,170.72v8h-1.7l-.06-8h-2.68v-1.48h2.68v-2.8h1.76v2.8h2.74v1.48h-2.74Z"/>
  </g>
</svg>